PathFileType	4	(X/Y/Z)	..\data\2014014\dynamic\2014014_C5_04.trc
DataRate	CameraRate	NumFrames	NumMarkers	Units	OrigDataRate	OrigDataStartFrame	OrigNumFrames
100.000000	100.000000	4	52	mm	100.000000	98	157
Frame#	Time	L_IAS			L_IPS			R_IPS			R_IAS			L_FTC			L_FLE			L_FME			L_FAX			L_TTC			L_FAL			L_TAM			L_FCC			L_FM1			L_FM2			L_FM5			R_FTC			R_FLE			R_FME			R_FAX			R_TTC			R_FAL			R_TAM			R_FCC			R_FM1			R_FM2			R_FM5			CV7			TV10			SXS			SJN			L_SIA			L_SRS			L_SAA			L_SAE			L_HLE			L_HME			L_UOA			L_RSP			L_UHE			L_HM2			L_HM5			R_SIA			R_SRS			R_SAA			R_SAE			R_HLE			R_HME			R_UOA			R_RSP			R_UHE			R_HM2			R_HM5			
		X1	Y1	Z1	X2	Y2	Z2	X3	Y3	Z3	X4	Y4	Z4	X5	Y5	Z5	X6	Y6	Z6	X7	Y7	Z7	X8	Y8	Z8	X9	Y9	Z9	X10	Y10	Z10	X11	Y11	Z11	X12	Y12	Z12	X13	Y13	Z13	X14	Y14	Z14	X15	Y15	Z15	X16	Y16	Z16	X17	Y17	Z17	X18	Y18	Z18	X19	Y19	Z19	X20	Y20	Z20	X21	Y21	Z21	X22	Y22	Z22	X23	Y23	Z23	X24	Y24	Z24	X25	Y25	Z25	X26	Y26	Z26	X27	Y27	Z27	X28	Y28	Z28	X29	Y29	Z29	X30	Y30	Z30	X31	Y31	Z31	X32	Y32	Z32	X33	Y33	Z33	X34	Y34	Z34	X35	Y35	Z35	X36	Y36	Z36	X37	Y37	Z37	X38	Y38	Z38	X39	Y39	Z39	X40	Y40	Z40	X41	Y41	Z41	X42	Y42	Z42	X43	Y43	Z43	X44	Y44	Z44	X45	Y45	Z45	X46	Y46	Z46	X47	Y47	Z47	X48	Y48	Z48	X49	Y49	Z49	X50	Y50	Z50	X51	Y51	Z51	X52	Y52	Z52	

99	0.98	112.5199432373047	977.6399536132815	136.7848205566407	-99.19884490966803	989.8105468750002	193.6683807373047	-105.5289001464844	988.640319824219	293.8865051269532	86.84422302246091	969.6607055664065	390.621795654297	53.16134262084962	880.310485839844	57.40915679931643	183.3247680664063	492.1626586914064	111.4303817749024	181.8672027587891	482.1524963378907	249.8722229003907	188.2677307128907	431.797088623047	108.1435089111329	260.3246154785157	446.9170532226564	159.9059295654297	332.2484741210938	80.35271453857423	126.6912384033204	346.5101928710938	119.6150131225586	221.3354644775391	307.2976989746094	15.04559516906739	188.8273468017579	492.920623779297	92.97025299072267	206.5912475585939	485.2869262695314	111.9179840087891	153.5875244140626	450.7388916015626	73.60295867919923	100.4283447265626	2.06103682518	868.8618774414065	439.636444091797	-109.9463195800782	479.1123046875001	349.7677001953126	-70.58567810058598	481.4923400878907	226.3540039062501	-145.2941436767579	433.7475585937501	353.0134277343751	-79.86206817626959	404.5270996093751	308.0196228027344	-274.1555480957032	76.37088775634767	325.0722351074219	-227.9940032958985	98.47509765625003	232.0097198486328	-311.7795410156251	42.9092140197754	257.8574829101562	-109.9147033691407	20.48242568969727	252.5654449462891	-109.0672683715821	36.00762176513673	311.5123596191407	-159.9636230468751	19.82467651367188	366.1353454589844	-22.46901893615726	1514.586791992188	266.7421875000001	-130.5186462402344	1278.648559570313	254.9661712646485	138.1003265380859	1229.6591796875	264.6211853027344	101.3731079101562	1416.0244140625	275.1316223144532	-151.8641967773438	1311.628051757813	158.8788757324219	-98.55146026611332	1452.859985351563	159.5443267822266	-59.1367111206055	1453.704223632813	96.16993713378908	-12.94036674499513	1448.044799804688	66.75220489501955	-97.14250183105472	1123.484985351563	-26.06421470642092	-125.0619888305664	1117.432739257813	65.99726867675781	-136.9057006835938	1113.190307617188	7.986798763275131	-89.81880187988283	850.1273193359377	4.283827781677236	-159.1260986328125	874.9610595703127	-45.89961242675784	-90.50003051757814	761.1948242187501	-13.43434906005861	-192.3999176025391	796.9896240234377	-50.90646362304691	-149.1533966064454	1303.86181640625	378.7148132324219	-90.12207794189459	1441.333251953125	391.7225341796876	-52.33129119873054	1426.760864257813	458.4523010253907	-5.209348201751768	1423.312133789063	479.0354309082032	13.45008087158196	1094.012084960938	577.5529174804689	-19.02744102478034	1068.038818359375	480.9150390625001	-26.81386947631843	1059.863159179688	550.5678100585939	188.5967102050781	897.580749511719	511.109344482422	134.4368896484374	872.4012451171877	582.6026000976564	255.3000793457031	827.4327392578127	528.7282104492189	162.5308837890625	780.506774902344	579.2453613281251	
100	0.99	127.7323684692383	975.6233520507815	135.9991455078126	-84.00888824462895	987.6550903320315	192.8015899658204	-90.39521026611334	986.8541259765627	292.8913269042969	101.7348937988281	967.9598388671877	390.2065429687501	67.76444244384767	877.741882324219	56.86626434326174	197.4302215576172	490.1602783203126	112.6706695556641	194.615707397461	479.8790893554689	251.324432373047	203.3812408447266	430.193572998047	109.0616149902344	274.6878356933594	446.1148071289064	162.0822906494141	351.9195861816407	80.76512145996095	126.8479766845704	364.9140930175782	119.6903152465821	221.7761230468751	327.0574951171876	14.70814514160157	188.3209228515626	511.7937927246095	95.16213226318361	208.6777496337892	504.6966247558595	113.8933410644532	155.5650482177735	471.1407775878907	75.17618560791017	102.1082000732423	16.16490173339839	867.6337890625002	439.2130432128907	-99.40490722656257	479.0149536132814	350.1158142089844	-59.09569931030278	480.425750732422	226.7658233642579	-135.6913604736329	434.2014465332032	353.1927490234376	-70.61042785644537	403.627166748047	308.4878540039063	-273.0471801757814	79.55052185058595	325.3606262207031	-226.013153076172	100.9258346557617	232.5701446533203	-311.3326416015626	47.22981643676759	258.021484375	-109.5239639282227	20.33876037597657	252.5399017333985	-108.7775955200196	36.00512695312501	311.5523376464844	-160.0276947021485	19.76430320739746	365.9445495605469	-8.140228271484409	1512.646850585938	265.2396850585938	-115.9673004150391	1276.7841796875	254.0829467773438	152.7567291259766	1227.78955078125	263.7265014648438	115.914176940918	1414.131103515625	273.7922973632813	-137.4263153076172	1309.293212890625	157.9966735839844	-84.18702697753909	1450.545776367188	158.418701171875	-44.94790649414065	1451.252197265625	94.98033142089845	1.13911569118499	1445.519165039063	65.47547149658205	-84.34778594970705	1121.382202148438	-26.64172554016115	-111.4230728149414	1115.1474609375	65.70822906494141	-123.9544372558594	1111.29833984375	7.699250698089586	-78.59182739257814	847.9102172851565	3.311159849166861	-148.0662689208985	873.2798461914065	-46.37658309936526	-80.20311737060548	758.9234619140626	-14.35131359100343	-182.0661315917969	795.5661621093752	-51.03681564331058	-134.5629272460938	1302.041259765625	377.5629577636719	-75.51545715332037	1439.69580078125	390.5340576171876	-37.63093185424811	1425.247436523438	457.2479553222657	9.528814315795842	1421.84716796875	477.7913818359376	27.68078804016107	1092.85791015625	577.3265991210939	-4.908155918121397	1066.533935546875	480.8399047851564	-12.59757328033454	1058.648071289063	550.6197509765626	203.2912750244141	896.8183593750002	511.0861816406251	149.2144927978515	871.5305175781252	582.6302490234376	270.242431640625	826.9873046875002	528.9429321289064	177.604736328125	779.7899169921877	579.4221801757814	
101	1	143.1738586425781	973.864929199219	135.1437072753907	-68.58831024169926	985.8231201171877	191.966537475586	-74.96536254882818	985.3198242187502	291.9836425781251	116.9798355102539	966.4625244140627	389.7288818359376	82.5972137451172	875.5556640625002	56.29257583618166	211.8880310058594	488.4322204589845	113.4746704101563	207.8910369873047	478.0359191894532	252.2367706298829	218.3820343017579	428.6629333496095	109.6534500122071	289.0113220214844	445.0065002441407	163.7999877929688	368.5397338867188	80.46840667724611	127.2798004150391	380.5777893066407	119.0001602172852	222.4752197265626	343.1732788085938	14.24028396606446	188.1823425292969	527.5345458984376	95.25612640380861	211.0296936035157	521.1275024414064	113.7543869018555	157.7707977294923	488.2031555175782	74.92784881591798	104.1184997558595	30.59197807312007	866.618835449219	438.7842102050782	-88.20066833496099	478.9516601562501	350.8872680664063	-47.08421325683597	479.3482055664064	227.5108337402344	-125.482162475586	434.7285461425782	353.8048095703126	-60.80734252929692	402.743865966797	309.3825073242188	-271.6370239257814	83.17990875244142	326.1507568359375	-223.8495483398438	103.7365417480469	233.6390686035157	-310.7515563964845	52.23001861572267	258.7892150878906	-109.233009338379	20.09037208557129	252.4759521484376	-108.4993972778321	35.91979980468751	311.5892944335938	-160.0396728515626	19.50047492980957	365.8173828125001	6.204046726226776	1510.915893554688	263.6264953613282	-101.2836990356446	1275.047119140625	253.1777496337891	167.593505859375	1226.233642578125	262.7138977050782	130.5103759765625	1412.51220703125	272.3545227050782	-122.8430938720704	1307.070190429688	156.9622192382812	-69.78993988037112	1448.395874023438	157.1483154296875	-30.70699691772463	1448.98681640625	93.67292785644533	15.28451633453369	1443.210815429688	64.09513092041017	-71.16362762451173	1119.420288085938	-27.40694236755373	-97.52543640136723	1113.013549804688	65.17118835449219	-110.6472778320313	1109.522094726563	7.152572154998768	-66.68079376220705	845.8628540039065	2.273557901382439	-136.2368927001953	871.665222167969	-47.06877899169924	-69.03466796875001	756.8464355468751	-15.2986183166504	-170.8424224853516	794.1697998046877	-51.42568969726566	-119.8625946044923	1300.297119140625	376.2247924804688	-60.92830276489264	1438.202758789063	389.1863098144532	-22.97348022460944	1423.8974609375	455.9004516601564	24.21204948425288	1420.573852539063	476.432830810547	41.68959426879876	1091.876953125	576.9558715820314	9.061860084533635	1065.25732421875	480.5847473144532	1.442453026771478	1057.614013671875	550.4588623046876	217.5621490478516	895.9793701171877	511.034149169922	163.4856872558593	870.664978027344	582.5989379882814	284.6425170898438	826.3477783203127	529.1445312500001	192.0346374511719	779.0245361328127	579.5434570312501	
102	1.01	158.8448333740234	972.4150390625002	134.224105834961	-52.94692611694339	984.340026855469	191.1673583984375	-59.24734115600591	984.0333251953127	291.1593017578126	132.5819854736328	965.1699218750002	389.1690063476564	97.7216491699219	873.8404541015627	55.67634582519534	226.6392822265626	486.9824523925782	113.8317413330079	221.6866302490235	476.6168823242189	252.6014404296876	233.2403106689454	427.2085571289064	109.9027252197266	303.3136596679688	443.6131896972657	164.9785156250001	382.3843383789063	79.41917419433595	127.910270690918	393.7582397460939	117.5376968383789	223.3516235351564	355.9166870117188	13.63304615020752	188.3367156982423	540.4339599609376	93.24036407470705	213.5649566650392	534.8803100585939	111.4746551513672	160.1200714111329	502.207977294922	72.81744384765626	106.357521057129	45.36810684204097	865.794616699219	438.3341064453126	-76.22586822509771	478.8703002929689	352.1147766113282	-34.46965408325199	478.2204895019532	228.6197509765626	-114.5697937011719	435.2846984863282	354.8880920410157	-50.35716629028325	401.8289184570314	310.7463989257813	-269.8226623535157	87.2782669067383	327.4308166503906	-221.3926696777345	106.9066696166992	235.2078247070313	-309.8973999023439	57.95667266845705	260.1393432617188	-109.0917205810547	19.73126411437989	252.3524932861329	-108.2621841430665	35.72651290893555	311.6057128906251	-160.0198059082032	19.04890060424805	365.7388000488282	20.56618499755857	1509.408569335938	261.9122009277344	-86.46391296386723	1273.452758789063	252.2569885253907	182.6132202148438	1225.011108398438	261.5801696777344	145.1647796630859	1411.189086914063	270.8202209472657	-108.1183700561524	1304.981323242188	155.8095703125	-55.35881423950199	1446.429443359375	155.7360534667969	-16.41564369201662	1446.92431640625	92.25305175781251	29.49599456787109	1441.136962890625	62.61508941650393	-57.58049774169923	1117.605712890625	-28.35444068908693	-83.368034362793	1111.046020507813	64.39132690429688	-96.96897125244143	1107.860473632813	6.359849929809561	-54.06463623046876	843.9917602539065	1.16298615932464	-123.6348724365235	870.1191406250002	-47.97188949584963	-56.97752761840822	754.9627685546876	-16.29682350158692	-158.7191162109375	792.8005981445315	-52.0811805725098	-105.0441055297852	1298.638061523438	374.7004699707032	-46.35698318481451	1436.872924804688	387.6859436035157	-8.352950096130428	1422.728881835938	454.4152832031251	38.84799957275386	1419.509765625	474.9650878906251	55.47800064086908	1091.083984375	576.4362792968751	22.88585853576654	1064.225341796875	480.1446228027345	15.30161571502679	1056.775756835938	550.0786743164064	231.399169921875	895.0704345703127	510.9468994140626	177.2493896484374	869.8171386718752	582.5058593750001	298.4948120117188	825.5208740234377	529.3254394531251	205.8159484863281	778.2192382812502	579.6085815429689	
